{"title":"World War Z 2013 480p BRRip x264 AAC [GWC].mp4","uid":8875725,"size":378189863,"categoryP":"video","categoryS":"movies","magnet":"?xt=urn:btih:cc1454f7f6c842e7e9a8ba8c3d8475d8631961f8&amp;dn=World+War+Z+2013+480p+BRRip+x264+AAC+%5BGWC%5D.mp4&amp;tr=udp%3A%2F%2Ftracker.openbittorrent.com%3A80&amp;tr=udp%3A%2F%2Fopen.demonii.com%3A1337&amp;tr=udp%3A%2F%2Ftracker.coppersurfer.tk%3A6969&amp;tr=udp%3A%2F%2Fexodus.desync.com%3A6969","seeders":1,"leechers":1,"uploader":"canc232","files":1,"time":1378195566,"description":"World War Z 2013 480p BRRip x264 AAC [GWC]\n\nCOVER : &lt;a href=&quot;\nhttp://img541.imageshack.us/img541/2525/5siw.jpg&quot; rel=&quot;nofollow&quot; target=&quot;_NEW&quot;&gt;\nhttp://img541.imageshack.us/img541/2525/5siw.jpg&lt;/a&gt;\n\nMovie Plot : \nLife for former United Nations investigator Gerry Lane and his family seems content. Suddenly, the world is plagued by a mysterious infection turning whole human populations into rampaging mindless zombies. After barely escaping the chaos, Lane is persuaded to go on a mission to investigate this disease. What follows is a perilous trek around the world where Lane must brave horrific dangers and long odds to find answers before human civilization falls.\n\n\n\nSCREENS :\n &lt;a href=&quot;\nhttp://imageshack.us/a/img542/8507/h5vh.jpg&quot; rel=&quot;nofollow&quot; target=&quot;_NEW&quot;&gt;\nhttp://imageshack.us/a/img542/8507/h5vh.jpg&lt;/a&gt; &lt;a href=&quot;\nhttp://imageshack.us/a/img405/9114/3wqv.jpg&quot; rel=&quot;nofollow&quot; target=&quot;_NEW&quot;&gt;\nhttp://imageshack.us/a/img405/9114/3wqv.jpg&lt;/a&gt; &lt;a href=&quot;\nhttp://imageshack.us/a/img845/1319/6ew1.jpg&quot; rel=&quot;nofollow&quot; target=&quot;_NEW&quot;&gt;\nhttp://imageshack.us/a/img845/1319/6ew1.jpg&lt;/a&gt; &lt;a href=&quot;\nhttp://imageshack.us/a/img833/648/kkfw.jpg&quot; rel=&quot;nofollow&quot; target=&quot;_NEW&quot;&gt;\nhttp://imageshack.us/a/img833/648/kkfw.jpg&lt;/a&gt; &lt;a href=&quot;\nhttp://imageshack.us/a/img197/1537/k6c8.jpg&quot; rel=&quot;nofollow&quot; target=&quot;_NEW&quot;&gt;\nhttp://imageshack.us/a/img197/1537/k6c8.jpg&lt;/a&gt;\n\n\n\nGeneral \nFormat : MPEG-4 \nFile size : 361 MiB \nDuration : 2h 3mn \nOverall bit rate mode : Variable \nOverall bit rate : 410 Kbps \n\nVideo \nID : 201 \nFormat : AVC \nFormat profile : &lt;a class=&quot;__cf_email__&quot; href=&quot;/cdn-cgi/l/email-protection&quot; data-cfemail=&quot;470f2e202f070b746977&quot;&gt;[email&amp;#160;protected]&lt;/a&gt;&lt;script cf-hash='f9e31' type=&quot;text/javascript&quot;&gt;\n/* &lt;![CDATA[ */!function(){try{var t=&quot;currentScript&quot;in document?document.currentScript:function(){for(var t=document.getElementsByTagName(&quot;script&quot;),e=t.length;e--;)if(t[e].getAttribute(&quot;cf-hash&quot;))return t[e]}();if(t&amp;&amp;t.previousSibling){var e,r,n,i,c=t.previousSibling,a=c.getAttribute(&quot;data-cfemail&quot;);if(a){for(e=&quot;&quot;,r=parseInt(a.substr(0,2),16),n=2;a.length-n;n+=2)i=parseInt(a.substr(n,2),16)^r,e+=String.fromCharCode(i);e=document.createTextNode(e),c.parentNode.replaceChild(e,c)}}}catch(u){}}();/* ]]&gt; */&lt;/script&gt; \nFormat settings, CABAC : Yes \nFormat settings, ReFrames : 4 frames \nDuration : 2h 3mn \nBit rate : 343 Kbps \nMaximum bit rate : 2 932 Kbps \nWidth : 720 pixels \nHeight : 304 pixels \nDisplay aspect ratio : 2.35:1 \nFrame rate : 23.976 fps \nStream size : 302 MiB (84%) \nTitle : World War Z 2013 480p BRRip x264 AAC [GWC] \nWriting library : x264 core \n\nAudio \nID : 1 \nFormat : AAC \nFormat/Info : Advanced Audio Codec \nFormat profile : HE-AAC / LC \nCodec ID : 40 \nDuration : 2h 3mn \nBit rate mode : Variable \nChannel(s) : 2 channels \nSampling rate : 48.0 KHz / 24.0 KHz \nLanguage : English \n\nText \nID : 202 \nFormat : Timed Text \nCodec ID : tx3g \nDuration : 1h 55mn \nBit rate mode : Variable \nStream size : 40.6 KiB (0%) \nLanguage : English \n\n\nSource : World.War.Z.2013.Unrated.Cut.720p.BluRay.x264.DTS-WiKi(thanks!)","torrent":{"xt":"urn:btih:cc1454f7f6c842e7e9a8ba8c3d8475d8631961f8","amp;dn":"World+War+Z+2013+480p+BRRip+x264+AAC+%5BGWC%5D.mp4","amp;tr":["udp%3A%2F%2Ftracker.openbittorrent.com%3A80","udp%3A%2F%2Fopen.demonii.com%3A1337","udp%3A%2F%2Ftracker.coppersurfer.tk%3A6969","udp%3A%2F%2Fexodus.desync.com%3A6969"],"infoHash":"cc1454f7f6c842e7e9a8ba8c3d8475d8631961f8","infoHashBuffer":{"type":"Buffer","data":[204,20,84,247,246,200,66,231,233,168,186,140,61,132,117,216,99,25,97,248]},"announce":[],"urlList":[]}}